<svg width="30" height="30" viewBox="0 0 30 30" fill="none" xmlns="http://www.w3.org/2000/svg">
<g clip-path="url(#clip0_352_5211)">
<path d="M14.9792 0C23.2642 0 30 6.73584 30 15.0208C30 23.3057 23.2642 30 14.9792 30C6.69434 30 0 23.3057 0 15.0208C0 6.73584 6.69434 0 14.9792 0ZM13.8492 19.6653H14.8534C14.9792 17.1134 15.5643 16.2766 17.9502 14.8534C19.4149 13.9323 19.8755 13.6404 20.4191 13.054C21.1728 12.2587 21.5491 11.2545 21.5491 10.083C21.5491 7.11206 19.1645 5.31262 15.2725 5.31262C13.9336 5.31262 12.8879 5.56433 11.8409 5.94055C9.74829 6.73584 8.45227 8.40943 8.45227 10.2504C8.45227 11.1715 9.0802 11.6307 10.3776 11.6307C11.4661 11.6307 12.0511 11.1702 12.0096 10.4177V9.41358C12.0096 8.78565 12.2613 7.69849 12.5961 7.15357C13.0151 6.48413 13.8934 6.02356 14.8976 6.02356C16.78 6.02356 17.9944 7.52979 17.9944 9.74695C17.9944 10.5837 17.8685 11.379 17.5338 12.1315C17.2406 12.7179 16.9059 13.1771 15.9017 14.2656C14.3112 15.9392 13.8519 17.1522 13.8519 19.036V19.6639L13.8492 19.6653ZM14.3928 25.7317C15.6058 25.7317 16.5685 24.769 16.5685 23.556C16.5685 22.343 15.6473 21.3804 14.3928 21.3804C13.1798 21.3804 12.2587 22.343 12.2587 23.556C12.2587 24.769 13.1798 25.7317 14.3928 25.7317Z" fill="#D4D8F7"/>
</g>
<defs>
<clipPath id="clip0_352_5211">
<rect width="30" height="30" fill="white"/>
</clipPath>
</defs>
</svg>
