<svg width="30" height="30" viewBox="0 0 30 30" fill="none" xmlns="http://www.w3.org/2000/svg">
<rect width="30" height="30" rx="8" fill="url(#paint0_linear_352_4978)"/>
<path d="M11.2509 15C11.2509 12.929 12.9294 11.2497 15.0005 11.2497C17.0715 11.2497 18.7509 12.929 18.7509 15C18.7509 17.071 17.0715 18.7503 15.0005 18.7503C12.9294 18.7503 11.2509 17.071 11.2509 15ZM9.22348 15C9.22348 18.1905 11.8098 20.7767 15.0005 20.7767C18.1911 20.7767 20.7774 18.1905 20.7774 15C20.7774 11.8095 18.1911 9.22326 15.0005 9.22326C11.8098 9.22326 9.22348 11.8095 9.22348 15ZM19.6561 8.99421C19.6558 9.73979 20.26 10.3445 21.0056 10.3447C21.7512 10.345 22.3559 9.74087 22.3562 8.99529C22.3565 8.24971 21.7523 7.64505 21.0067 7.64475C20.2614 7.6451 19.6567 8.24898 19.6561 8.99421ZM10.4553 24.1572C9.35839 24.1073 8.76221 23.9246 8.36601 23.7702C7.84075 23.5658 7.46598 23.3222 7.07194 22.9287C6.67791 22.5352 6.434 22.1608 6.23041 21.6356C6.07596 21.2396 5.89326 20.6433 5.84339 19.5464C5.78885 18.3606 5.77796 18.0044 5.77796 15.0001C5.77796 11.9958 5.78975 11.6406 5.84339 10.4537C5.89335 9.35691 6.0774 8.76174 6.23041 8.36457C6.4349 7.83933 6.67845 7.46457 7.07194 7.07055C7.46544 6.67653 7.83985 6.43263 8.36601 6.22905C8.76203 6.07461 9.35839 5.89191 10.4553 5.84205C11.6412 5.78751 11.9974 5.77662 15.0005 5.77662C18.0035 5.77662 18.3601 5.78841 19.547 5.84205C20.6439 5.892 21.239 6.07605 21.6362 6.22905C22.1615 6.43263 22.5363 6.67707 22.9303 7.07055C23.3243 7.46403 23.5674 7.83933 23.7718 8.36457C23.9263 8.76057 24.109 9.35691 24.1589 10.4537C24.2134 11.6406 24.2243 11.9958 24.2243 15.0001C24.2243 18.0044 24.2134 18.3596 24.1589 19.5464C24.1089 20.6433 23.9253 21.2394 23.7718 21.6356C23.5674 22.1608 23.3238 22.5356 22.9303 22.9287C22.5368 23.3218 22.1615 23.5658 21.6362 23.7702C21.2402 23.9247 20.6439 24.1074 19.547 24.1572C18.3611 24.2118 18.0049 24.2227 15.0005 24.2227C11.996 24.2227 11.6408 24.2118 10.4553 24.1572ZM10.3621 3.81813C9.16444 3.87267 8.34603 4.06257 7.63132 4.34067C6.89113 4.62786 6.26452 5.01315 5.63837 5.63829C5.01221 6.26343 4.6279 6.891 4.34069 7.63116C4.06258 8.3463 3.87267 9.16422 3.81813 10.3618C3.76269 11.5614 3.75 11.9449 3.75 15C3.75 18.0551 3.76269 18.4386 3.81813 19.6381C3.87267 20.8359 4.06258 21.6537 4.34069 22.3688C4.6279 23.1085 5.0123 23.7368 5.63837 24.3617C6.26443 24.9866 6.89113 25.3713 7.63132 25.6593C8.34738 25.9374 9.16444 26.1273 10.3621 26.1819C11.5623 26.2364 11.9452 26.25 15.0005 26.25C18.0557 26.25 18.4392 26.2373 19.6388 26.1819C20.8366 26.1273 21.6544 25.9374 22.3696 25.6593C23.1093 25.3713 23.7364 24.9869 24.3625 24.3617C24.9887 23.7366 25.3722 23.1085 25.6602 22.3688C25.9383 21.6537 26.1291 20.8358 26.1828 19.6381C26.2373 18.4377 26.25 18.0551 26.25 15C26.25 11.9449 26.2373 11.5614 26.1828 10.3618C26.1282 9.16413 25.9383 8.34585 25.6602 7.63116C25.3722 6.89145 24.9877 6.26442 24.3625 5.63829C23.7374 5.01216 23.1093 4.62786 22.3705 4.34067C21.6544 4.06257 20.8365 3.87177 19.6397 3.81813C18.4401 3.76359 18.0566 3.75 15.0014 3.75C11.9461 3.75 11.5623 3.76269 10.3621 3.81813Z" fill="url(#paint1_radial_352_4978)"/>
<defs>
<linearGradient id="paint0_linear_352_4978" x1="25.0633" y1="7.36226e-07" x2="-3.43196" y2="21.8381" gradientUnits="userSpaceOnUse">
<stop stop-color="#801DFD"/>
<stop offset="0.0544606" stop-color="#A830E1"/>
<stop offset="0.308921" stop-color="#D235C3"/>
<stop offset="0.579132" stop-color="#C01285"/>
<stop offset="0.708036" stop-color="#C91717"/>
<stop offset="0.899989" stop-color="#EE815E"/>
<stop offset="1" stop-color="#FFE600"/>
</linearGradient>
<radialGradient id="paint1_radial_352_4978" cx="0" cy="0" r="1" gradientUnits="userSpaceOnUse" gradientTransform="translate(51.5801 365.451) scale(469.969)">
<stop offset="0.09" stop-color="white"/>
<stop offset="0.78" stop-color="#FAFAFA"/>
</radialGradient>
</defs>
</svg>
