<svg width="52" height="48" viewBox="0 0 52 48" fill="none" xmlns="http://www.w3.org/2000/svg">
<path d="M2.012 23.672C1.95241 22.5841 2.11525 21.4954 2.49058 20.4725C2.86589 19.4494 3.44578 18.5139 4.19487 17.7226C4.94398 16.9314 5.84653 16.301 6.84737 15.8703C7.84825 15.4396 8.92642 15.2176 10.016 15.2176C11.1056 15.2176 12.1838 15.4396 13.1846 15.8703C14.1855 16.301 15.088 16.9314 15.8371 17.7226C16.5862 18.5139 17.1662 19.4494 17.5415 20.4725C17.9168 21.4954 18.0796 22.5841 18.02 23.672V37.184C18.0796 38.2719 17.9168 39.3608 17.5415 40.3837C17.1662 41.4065 16.5862 42.3421 15.8371 43.1333C15.088 43.9246 14.1855 44.5549 13.1846 44.9857C12.1838 45.4162 11.1056 45.6385 10.016 45.6385C8.92642 45.6385 7.84825 45.4162 6.84737 44.9857C5.84653 44.5549 4.94398 43.9246 4.19487 43.1333C3.44578 42.3421 2.86589 41.4065 2.49058 40.3837C2.11525 39.3608 1.95241 38.2719 2.012 37.184V23.672Z" stroke="black" stroke-width="3.6" stroke-linecap="round" stroke-linejoin="round"/>
<path d="M18.0644 37.184C18.058 38.2397 18.2597 39.2864 18.6579 40.2644C19.0562 41.2421 19.6431 42.1321 20.3852 42.8833C21.1273 43.6342 22.01 44.2318 22.9832 44.6415C23.9562 45.0514 25.0004 45.2657 26.0564 45.272H35.9444C38.2499 45.2703 40.4929 44.5208 42.3364 43.136C44.1798 41.7512 45.5245 39.8057 46.1685 37.592L49.7685 25.4C50.055 24.5895 50.1438 23.7224 50.0279 22.8706C49.9117 22.0189 49.594 21.2072 49.1013 20.503C48.6083 19.7989 47.9543 19.2224 47.1937 18.8218C46.4332 18.4213 45.5879 18.2081 44.7284 18.2H31.4804V5.52795C31.4836 5.06778 31.396 4.61161 31.2229 4.18527C31.0496 3.75894 30.7943 3.37088 30.471 3.04328C30.148 2.71566 29.7635 2.45485 29.3394 2.27583C28.9156 2.09684 28.4605 2.00314 28.0004 2C27.2432 2.00343 26.5079 2.2537 25.906 2.7128C25.3038 3.1719 24.868 3.81478 24.6644 4.544L18.0644 26.528" stroke="black" stroke-width="3.6" stroke-linecap="round" stroke-linejoin="round"/>
</svg>
