<svg width="35" height="37" viewBox="0 0 35 37" fill="none" xmlns="http://www.w3.org/2000/svg">
<path d="M33.6953 20.7178C34.3291 19.6447 34.6875 18.5 34.6875 17.1161C34.6875 13.9353 31.9979 10.9316 28.4857 10.9316H25.8494C26.205 10.0059 26.489 8.89879 26.489 7.56838C26.489 2.30788 23.7653 0 19.6042 0C15.1522 0 15.4061 6.86039 14.4184 7.84805C12.7746 9.49187 10.833 12.6499 9.44945 13.875H2.3125C1.03535 13.875 0 14.9103 0 16.1875V33.5312C0 34.8084 1.03535 35.8438 2.3125 35.8438H6.9375C8.01375 35.8438 8.91816 35.1085 9.17614 34.113C12.3926 34.1853 14.6004 36.9993 22.0251 36.9993C22.5469 36.9993 23.125 37 23.6309 37C29.2038 37 31.7236 34.1511 31.7925 30.1109C32.755 28.7794 33.2595 26.9947 33.0456 25.2698C33.7577 23.9364 34.0331 22.3544 33.6953 20.7178ZM29.2329 24.6079C30.1405 26.1349 29.3239 28.1785 28.2255 28.7682C28.782 32.2933 26.9531 33.5305 24.3868 33.5305H21.6537C16.4766 33.5305 13.1242 30.7974 9.25 30.7974V17.3438H10.0391C12.0886 17.3438 14.9518 12.2208 16.8711 10.3007C18.9206 8.25129 18.2377 4.83529 19.6042 3.46875C23.0202 3.46875 23.0202 5.85207 23.0202 7.56838C23.0202 10.399 20.9708 11.6673 20.9708 14.4004H28.4857C30.0112 14.4004 31.2122 15.7669 31.2188 17.1335C31.2253 18.4993 30.2923 19.8658 29.6094 19.8658C30.5842 20.9176 30.7925 23.1348 29.2329 24.6079ZM6.35938 31.2188C6.35938 32.1766 5.58288 32.9531 4.625 32.9531C3.66712 32.9531 2.89062 32.1766 2.89062 31.2188C2.89062 30.2609 3.66712 29.4844 4.625 29.4844C5.58288 29.4844 6.35938 30.2609 6.35938 31.2188Z" fill="white"/>
</svg>
