<svg width="30" height="30" viewBox="0 0 30 30" fill="none" xmlns="http://www.w3.org/2000/svg">
<rect x="2" y="5.75" width="25.5" height="18.5" fill="#FF1616"/>
<path d="M18 15.5L12 10.9534V20.0466L18 15.5Z" fill="white"/>
<path fill-rule="evenodd" clip-rule="evenodd" d="M11.8702 9.1647C11.4833 8.94362 11.008 8.94521 10.6226 9.16886C10.2372 9.39251 10 9.80441 10 10.25V20.25C10 20.6956 10.2372 21.1075 10.6226 21.3311C11.008 21.5547 11.4833 21.5564 11.8702 21.3352L20.6201 16.3352C21.0096 16.1127 21.25 15.6986 21.25 15.25C21.25 14.8014 21.0096 14.3872 20.6201 14.1647L11.8702 9.1647ZM17.4805 15.25L12.5 18.096V12.404L17.4805 15.25Z" fill="white"/>
<path fill-rule="evenodd" clip-rule="evenodd" d="M0 15.25C0 10.5628 0 8.21925 1.19364 6.57634C1.57914 6.04575 2.04575 5.57914 2.57634 5.19364C4.21925 4 6.56284 4 11.25 4H18.75C23.4371 4 25.7808 4 27.4236 5.19364C27.9543 5.57914 28.4209 6.04575 28.8064 6.57634C30 8.21925 30 10.5628 30 15.25C30 19.9371 30 22.2808 28.8064 23.9236C28.4209 24.4543 27.9543 24.9209 27.4236 25.3064C25.7808 26.5 23.4371 26.5 18.75 26.5H11.25C6.56284 26.5 4.21925 26.5 2.57634 25.3064C2.04575 24.9209 1.57914 24.4543 1.19364 23.9236C0 22.2808 0 19.9371 0 15.25ZM11.25 6.5H18.75C21.1493 6.5 22.7479 6.50344 23.9591 6.63466C25.1236 6.76082 25.63 6.9806 25.9542 7.21619C26.2725 7.44749 26.5525 7.72745 26.7839 8.0458C27.0194 8.37006 27.2391 8.87641 27.3654 10.0409C27.4966 11.2521 27.5 12.8507 27.5 15.25C27.5 17.6493 27.4966 19.2479 27.3654 20.4591C27.2391 21.6236 27.0194 22.13 26.7839 22.4542C26.5525 22.7725 26.2725 23.0525 25.9542 23.2839C25.63 23.5194 25.1236 23.7391 23.9591 23.8654C22.7479 23.9966 21.1493 24 18.75 24H11.25C8.85073 24 7.25209 23.9966 6.04086 23.8654C4.87641 23.7391 4.37006 23.5194 4.0458 23.2839C3.72745 23.0525 3.44749 22.7725 3.21619 22.4542C2.9806 22.13 2.76082 21.6236 2.63466 20.4591C2.50344 19.2479 2.5 17.6493 2.5 15.25C2.5 12.8507 2.50344 11.2521 2.63466 10.0409C2.76082 8.87641 2.9806 8.37006 3.21619 8.0458C3.44749 7.72745 3.72745 7.44749 4.0458 7.21619C4.37006 6.9806 4.87641 6.76082 6.04086 6.63466C7.25209 6.50344 8.85073 6.5 11.25 6.5Z" fill="#FF1616"/>
</svg>
