<svg width="68" height="78" viewBox="0 0 68 78" fill="none" xmlns="http://www.w3.org/2000/svg">
<path d="M0.5 47C0.0603105 46.9173 0 47.0725 0 47.5V60.3309C0 62.4156 1.25278 64.3161 3.22298 65.22L28.4487 76.7931C31.9566 78.4023 36.0419 78.4023 39.5501 76.7931L64.7769 65.22C66.7471 64.3161 68 62.4156 68 60.3309V47.3163C68 46.8888 67.4395 46.4173 67 46.5L34.0007 55.264L0.5 47Z" fill="url(#paint0_linear_246_1461)"/>
<path d="M33.8442 28.2511L1.64033 43.0275C0.639829 43.4863 0 44.4766 0 45.5657V47.8006C0 48.0164 0.125459 48.2129 0.322565 48.3058L30.2222 62.4101C32.5414 63.5043 35.2371 63.5043 37.5564 62.4101L67.456 48.3058C67.653 48.2129 67.7786 48.0164 67.7786 47.8006V45.5657C67.7786 44.4766 67.1387 43.4863 66.1382 43.0275L33.9344 28.2511V28.2097L33.8893 28.2304L33.8442 28.2097V28.2511Z" fill="url(#paint1_linear_246_1461)"/>
<path d="M33.9547 28.0414L1.64569 42.8089C0.641919 43.2674 0 44.2571 0 45.3456V47.5791C0 47.7948 0.125869 47.9912 0.323618 48.084L30.3209 62.1799C32.6477 63.2734 35.3522 63.2734 37.679 62.1799L67.6763 48.084C67.874 47.9912 68 47.7948 68 47.5791V45.3456C68 44.2571 67.358 43.2674 66.3542 42.8089L34.0452 28.0414V28L34 28.0207L33.9547 28V28.0414Z" fill="url(#paint2_linear_246_1461)"/>
<path d="M33.9547 28.0414L1.64569 42.8089C0.641919 43.2674 0 44.2571 0 45.3456V47.5791C0 47.7948 0.125869 47.9912 0.323618 48.084L30.3209 62.1799C32.6477 63.2734 35.3522 63.2734 37.679 62.1799L67.6763 48.084C67.874 47.9912 68 47.7948 68 47.5791V45.3456C68 44.2571 67.358 43.2674 66.3542 42.8089L34.0452 28.0414V28L34 28.0207L33.9547 28V28.0414Z" fill="url(#paint3_linear_246_1461)"/>
<path d="M33.9547 28.0414L1.64569 42.8089C0.641919 43.2674 0 44.2571 0 45.3456V47.5791C0 47.7948 0.125869 47.9912 0.323618 48.084L30.3209 62.1799C32.6477 63.2734 35.3522 63.2734 37.679 62.1799L67.6763 48.084C67.874 47.9912 68 47.7948 68 47.5791V45.3456C68 44.2571 67.358 43.2674 66.3542 42.8089L34.0452 28.0414V28L34 28.0207L33.9547 28V28.0414Z" fill="url(#paint4_linear_246_1461)"/>
<path d="M33.9547 28.0414L1.64569 42.8089C0.641919 43.2674 0 44.2571 0 45.3456V47.5791C0 47.7948 0.125869 47.9912 0.323618 48.084L30.3209 62.1799C32.6477 63.2734 35.3522 63.2734 37.679 62.1799L67.6763 48.084C67.874 47.9912 68 47.7948 68 47.5791V45.3456C68 44.2571 67.358 43.2674 66.3542 42.8089L34.0452 28.0414V28L34 28.0207L33.9547 28V28.0414Z" fill="url(#paint5_radial_246_1461)"/>
<path d="M37.4218 62.6745L66.7489 48.6787" stroke="url(#paint6_linear_246_1461)" stroke-width="0.716451" stroke-linecap="round"/>
<path d="M33.1575 63.0372C21.2044 60.5032 19.6524 49.2817 20.3703 43.9877L47.7318 44.44C47.8543 51.6948 43.0111 61.4988 33.1575 63.0372Z" fill="url(#paint7_linear_246_1461)"/>
<path d="M33.1575 63.0372C21.2044 60.5032 19.6524 49.2817 20.3703 43.9877L47.7318 44.44C47.8543 51.6948 43.0111 61.4988 33.1575 63.0372Z" fill="url(#paint8_radial_246_1461)"/>
<path d="M11.1995 51.2152C7.85036 50.4166 7.41547 46.8804 7.61665 45.2124L15.2832 45.3549C15.3174 47.6409 13.9605 50.7304 11.1995 51.2152Z" fill="url(#paint9_linear_246_1461)"/>
<path d="M1.64569 45.2768L31.5605 59.0078C33.0789 59.7048 34.8311 59.7056 36.3504 59.0103L66.3542 45.2768C66.9441 45.006 67.367 44.5512 67.65 44C67.8485 44.3866 68 44.8203 68 45.2709V47.5139C68 47.7305 67.874 47.9277 67.6763 48.0209L37.679 62.1764C35.3522 63.2745 32.6477 63.2745 30.3209 62.1764L0.323618 48.0209C0.125869 47.9277 0 47.7305 0 47.5139V45.2709C0 44.8203 0.109086 44.3866 0.307632 44C0.590745 44.5512 1.05571 45.006 1.64569 45.2768Z" fill="url(#paint10_linear_246_1461)"/>
<path d="M20.3027 43.4876C20.2502 43.6916 20.2233 43.8988 20.2233 44.1084C20.2233 47.2849 26.382 49.8598 33.9787 49.8598C41.5755 49.8598 47.7342 47.2849 47.7342 44.1084C47.7342 43.8988 47.7072 43.6916 47.6548 43.4876C46.4546 37.1081 40.7881 32.2779 33.9787 32.2779C27.1693 32.2779 21.5028 37.1081 20.3027 43.4876Z" fill="#4C2F5A"/>
<path d="M20.3027 43.4876C20.2502 43.6916 20.2233 43.8988 20.2233 44.1084C20.2233 47.2849 26.382 49.8598 33.9787 49.8598C41.5755 49.8598 47.7342 47.2849 47.7342 44.1084C47.7342 43.8988 47.7072 43.6916 47.6548 43.4876C46.4546 37.1081 40.7881 32.2779 33.9787 32.2779C27.1693 32.2779 21.5028 37.1081 20.3027 43.4876Z" fill="url(#paint11_radial_246_1461)"/>
<path d="M20.3027 43.4876C20.2502 43.6916 20.2233 43.8988 20.2233 44.1084C20.2233 47.2849 26.382 49.8598 33.9787 49.8598C41.5755 49.8598 47.7342 47.2849 47.7342 44.1084C47.7342 43.8988 47.7072 43.6916 47.6548 43.4876C46.4546 37.1081 40.7881 32.2779 33.9787 32.2779C27.1693 32.2779 21.5028 37.1081 20.3027 43.4876Z" fill="url(#paint12_radial_246_1461)"/>
<path d="M20.3027 43.4876C20.2502 43.6916 20.2233 43.8988 20.2233 44.1084C20.2233 47.2849 26.382 49.8598 33.9787 49.8598C41.5755 49.8598 47.7342 47.2849 47.7342 44.1084C47.7342 43.8988 47.7072 43.6916 47.6548 43.4876C46.4546 37.1081 40.7881 32.2779 33.9787 32.2779C27.1693 32.2779 21.5028 37.1081 20.3027 43.4876Z" fill="url(#paint13_radial_246_1461)"/>
<path d="M20.3027 43.4876C20.2502 43.6916 20.2233 43.8988 20.2233 44.1084C20.2233 47.2849 26.382 49.8598 33.9787 49.8598C41.5755 49.8598 47.7342 47.2849 47.7342 44.1084C47.7342 43.8988 47.7072 43.6916 47.6548 43.4876C46.4546 37.1081 40.7881 32.2779 33.9787 32.2779C27.1693 32.2779 21.5028 37.1081 20.3027 43.4876Z" fill="url(#paint14_radial_246_1461)"/>
<path d="M20.3027 43.4876C20.2502 43.6916 20.2233 43.8988 20.2233 44.1084C20.2233 47.2849 26.382 49.8598 33.9787 49.8598C41.5755 49.8598 47.7342 47.2849 47.7342 44.1084C47.7342 43.8988 47.7072 43.6916 47.6548 43.4876C46.4546 37.1081 40.7881 32.2779 33.9787 32.2779C27.1693 32.2779 21.5028 37.1081 20.3027 43.4876Z" fill="url(#paint15_radial_246_1461)"/>
<path d="M20.3027 43.4876C20.2502 43.6916 20.2233 43.8988 20.2233 44.1084C20.2233 47.2849 26.382 49.8598 33.9787 49.8598C41.5755 49.8598 47.7342 47.2849 47.7342 44.1084C47.7342 43.8988 47.7072 43.6916 47.6548 43.4876C46.4546 37.1081 40.7881 32.2779 33.9787 32.2779C27.1693 32.2779 21.5028 37.1081 20.3027 43.4876Z" fill="url(#paint16_radial_246_1461)"/>
<path d="M11.3298 42.7413C13.5135 42.7413 15.2836 43.8979 15.2836 45.9452C15.2836 47.1589 13.5135 47.6837 11.3298 47.6837C9.14613 47.6837 7.37598 47.2135 7.37598 45.9452C7.37598 43.8979 9.14613 42.7413 11.3298 42.7413Z" fill="#50416C"/>
<path d="M11.3299 42.4246C13.4035 42.4246 15.0844 43.5809 15.0844 45.6282C15.0844 46.8419 13.4035 47.3667 11.3299 47.3667C9.25637 47.3667 7.57544 46.8965 7.57544 45.6282C7.57544 43.5809 9.25637 42.4246 11.3299 42.4246Z" fill="url(#paint17_radial_246_1461)"/>
<path d="M11.3299 42.4246C13.4035 42.4246 15.0844 43.5809 15.0844 45.6282C15.0844 46.8419 13.4035 47.3667 11.3299 47.3667C9.25637 47.3667 7.57544 46.8965 7.57544 45.6282C7.57544 43.5809 9.25637 42.4246 11.3299 42.4246Z" fill="url(#paint18_radial_246_1461)"/>
<path d="M11.3299 42.4246C13.4035 42.4246 15.0844 43.5809 15.0844 45.6282C15.0844 46.8419 13.4035 47.3667 11.3299 47.3667C9.25637 47.3667 7.57544 46.8965 7.57544 45.6282C7.57544 43.5809 9.25637 42.4246 11.3299 42.4246Z" fill="url(#paint19_radial_246_1461)"/>
<path d="M31.0551 22.5023C31.0551 20.9684 32.3145 19.725 33.8679 19.725C35.4216 19.725 36.681 20.9684 36.681 22.5023V34.1143C36.681 35.6482 35.4216 36.1263 33.8679 36.1263C32.3145 36.1263 31.0551 35.6482 31.0551 34.1143V22.5023Z" fill="url(#paint20_linear_246_1461)"/>
<path d="M31.0551 22.5023C31.0551 20.9684 32.3145 19.725 33.8679 19.725C35.4216 19.725 36.681 20.9684 36.681 22.5023V34.1143C36.681 35.6482 35.4216 36.1263 33.8679 36.1263C32.3145 36.1263 31.0551 35.6482 31.0551 34.1143V22.5023Z" fill="url(#paint21_radial_246_1461)"/>
<path d="M31.0551 22.5023C31.0551 20.9684 32.3145 19.725 33.8679 19.725C35.4216 19.725 36.681 20.9684 36.681 22.5023V34.1143C36.681 35.6482 35.4216 36.1263 33.8679 36.1263C32.3145 36.1263 31.0551 35.6482 31.0551 34.1143V22.5023Z" fill="url(#paint22_radial_246_1461)"/>
<path d="M33.9785 25.6296C41.1472 25.6296 46.9586 19.8922 46.9586 12.8148C46.9586 5.73739 41.1472 0 33.9785 0C26.8098 0 20.9984 5.73739 20.9984 12.8148C20.9984 19.8922 26.8098 25.6296 33.9785 25.6296Z" fill="url(#paint23_radial_246_1461)"/>
<path d="M33.9785 25.6296C41.1472 25.6296 46.9586 19.8922 46.9586 12.8148C46.9586 5.73739 41.1472 0 33.9785 0C26.8098 0 20.9984 5.73739 20.9984 12.8148C20.9984 19.8922 26.8098 25.6296 33.9785 25.6296Z" fill="url(#paint24_radial_246_1461)"/>
<path d="M33.9785 25.6296C41.1472 25.6296 46.9586 19.8922 46.9586 12.8148C46.9586 5.73739 41.1472 0 33.9785 0C26.8098 0 20.9984 5.73739 20.9984 12.8148C20.9984 19.8922 26.8098 25.6296 33.9785 25.6296Z" fill="url(#paint25_radial_246_1461)"/>
<path d="M66.7487 44.9198L36.0921 59.107C35.7567 59.2464 34.8644 59.5168 33.9784 59.4818" stroke="#7067A3" stroke-width="0.716451" stroke-linecap="round"/>
<defs>
<linearGradient id="paint0_linear_246_1461" x1="3.92298" y1="63.1904" x2="63.9434" y2="63.1904" gradientUnits="userSpaceOnUse">
<stop stop-color="#2F2137"/>
<stop offset="0.447917" stop-color="#38224A"/>
<stop offset="0.567708" stop-color="#5D3E7D"/>
</linearGradient>
<linearGradient id="paint1_linear_246_1461" x1="63.084" y1="43.8675" x2="-1.94923" y2="43.8675" gradientUnits="userSpaceOnUse">
<stop stop-color="#615D8D"/>
<stop offset="1" stop-color="#5E5681"/>
</linearGradient>
<linearGradient id="paint2_linear_246_1461" x1="63.2901" y1="43.6484" x2="-1.95559" y2="43.6484" gradientUnits="userSpaceOnUse">
<stop stop-color="#615D8D"/>
<stop offset="1" stop-color="#5E5681"/>
</linearGradient>
<linearGradient id="paint3_linear_246_1461" x1="17.0435" y1="52.5639" x2="17.4971" y2="51.6183" gradientUnits="userSpaceOnUse">
<stop offset="0.268621" stop-color="#4F3A84"/>
<stop offset="1" stop-color="#534177" stop-opacity="0"/>
</linearGradient>
<linearGradient id="paint4_linear_246_1461" x1="49.2914" y1="53.4574" x2="48.6565" y2="52.0972" gradientUnits="userSpaceOnUse">
<stop offset="0.338143" stop-color="#6152A2"/>
<stop offset="1" stop-color="#5F5887" stop-opacity="0"/>
</linearGradient>
<radialGradient id="paint5_radial_246_1461" cx="0" cy="0" r="1" gradientUnits="userSpaceOnUse" gradientTransform="translate(35.1958 26.4566) rotate(90) scale(15.8205 27.146)">
<stop stop-color="#6D6F9E"/>
<stop offset="1" stop-color="#6D6F9E" stop-opacity="0"/>
</radialGradient>
<linearGradient id="paint6_linear_246_1461" x1="63.8816" y1="50.6032" x2="39.4206" y2="62.9244" gradientUnits="userSpaceOnUse">
<stop offset="0.896047" stop-color="#69597D"/>
<stop offset="1" stop-color="#69597D" stop-opacity="0"/>
</linearGradient>
<linearGradient id="paint7_linear_246_1461" x1="33.9786" y1="46.6676" x2="33.9786" y2="63.0372" gradientUnits="userSpaceOnUse">
<stop stop-color="#4D4277"/>
<stop offset="1" stop-color="#4D4277" stop-opacity="0"/>
</linearGradient>
<radialGradient id="paint8_radial_246_1461" cx="0" cy="0" r="1" gradientUnits="userSpaceOnUse" gradientTransform="translate(33.9786 45.6179) rotate(90) scale(6.64796 14.9488)">
<stop offset="0.328947" stop-color="#281E45"/>
<stop offset="1" stop-color="#281E45" stop-opacity="0"/>
</radialGradient>
<linearGradient id="paint9_linear_246_1461" x1="11.4296" y1="43.9111" x2="11.4296" y2="54.2618" gradientUnits="userSpaceOnUse">
<stop stop-color="#4D4277"/>
<stop offset="1" stop-color="#4D4277" stop-opacity="0"/>
</linearGradient>
<linearGradient id="paint10_linear_246_1461" x1="63.5575" y1="53.7553" x2="-2.28391" y2="53.7553" gradientUnits="userSpaceOnUse">
<stop offset="0.430684" stop-color="#6052A1"/>
<stop offset="0.464436" stop-color="#4E3A83"/>
</linearGradient>
<radialGradient id="paint11_radial_246_1461" cx="0" cy="0" r="1" gradientUnits="userSpaceOnUse" gradientTransform="translate(35.2634 32.2779) rotate(94.1791) scale(17.629 34.0796)">
<stop offset="0.646766" stop-color="#442A5D" stop-opacity="0"/>
<stop offset="1" stop-color="#442A5D"/>
</radialGradient>
<radialGradient id="paint12_radial_246_1461" cx="0" cy="0" r="1" gradientUnits="userSpaceOnUse" gradientTransform="translate(45.6026 38.9908) rotate(151.483) scale(13.2287 8.54132)">
<stop stop-color="#6F5A85"/>
<stop offset="1" stop-color="#6F5A85" stop-opacity="0"/>
</radialGradient>
<radialGradient id="paint13_radial_246_1461" cx="0" cy="0" r="1" gradientUnits="userSpaceOnUse" gradientTransform="translate(25.0914 32.2779) rotate(101.888) scale(15.7729 10.1692)">
<stop stop-color="#4A3947"/>
<stop offset="1" stop-color="#4A3947" stop-opacity="0"/>
</radialGradient>
<radialGradient id="paint14_radial_246_1461" cx="0" cy="0" r="1" gradientUnits="userSpaceOnUse" gradientTransform="translate(33.4176 47.0607) rotate(-47.206) scale(15.0958 15.4749)">
<stop offset="0.9419" stop-color="#766F8B" stop-opacity="0.081686"/>
<stop offset="0.991185" stop-color="#766F8B"/>
</radialGradient>
<radialGradient id="paint15_radial_246_1461" cx="0" cy="0" r="1" gradientUnits="userSpaceOnUse" gradientTransform="translate(19.6695 44.9177) rotate(-43.8692) scale(14.0106 13.7092)">
<stop stop-color="#422E3D"/>
<stop offset="1" stop-color="#422E3D" stop-opacity="0"/>
</radialGradient>
<radialGradient id="paint16_radial_246_1461" cx="0" cy="0" r="1" gradientUnits="userSpaceOnUse" gradientTransform="translate(36.9469 47.1044) rotate(-139.433) scale(16.6787 19.7321)">
<stop offset="0.933845" stop-color="#50464D" stop-opacity="0"/>
<stop offset="1" stop-color="#50464D"/>
</radialGradient>
<radialGradient id="paint17_radial_246_1461" cx="0" cy="0" r="1" gradientUnits="userSpaceOnUse" gradientTransform="translate(14.2205 45.5736) rotate(180) scale(6.11349 6.12313)">
<stop stop-color="#FF3389"/>
<stop offset="1" stop-color="#E13B63"/>
</radialGradient>
<radialGradient id="paint18_radial_246_1461" cx="0" cy="0" r="1" gradientUnits="userSpaceOnUse" gradientTransform="translate(13.828 45.7418) rotate(168.456) scale(3.20437 1.55747)">
<stop stop-color="#FF5EA3"/>
<stop offset="1" stop-color="#FF5EA3" stop-opacity="0"/>
</radialGradient>
<radialGradient id="paint19_radial_246_1461" cx="0" cy="0" r="1" gradientUnits="userSpaceOnUse" gradientTransform="translate(13.113 44.8956) rotate(166.358) scale(5.47042 5.32913)">
<stop offset="0.677262" stop-color="#C52754" stop-opacity="0"/>
<stop offset="1" stop-color="#C52754"/>
</radialGradient>
<linearGradient id="paint20_linear_246_1461" x1="31.9853" y1="31.1839" x2="37.1242" y2="31.1839" gradientUnits="userSpaceOnUse">
<stop stop-color="#DDB7F2"/>
<stop offset="1" stop-color="#F8EBFF"/>
</linearGradient>
<radialGradient id="paint21_radial_246_1461" cx="0" cy="0" r="1" gradientUnits="userSpaceOnUse" gradientTransform="translate(34.2807 23.8532) scale(4.87392 2.63877)">
<stop stop-color="#BD7CD0"/>
<stop offset="1" stop-color="#BD7CD0" stop-opacity="0"/>
</radialGradient>
<radialGradient id="paint22_radial_246_1461" cx="0" cy="0" r="1" gradientUnits="userSpaceOnUse" gradientTransform="translate(32.3516 22.8005) rotate(123.401) scale(8.94597 5.68804)">
<stop offset="0.179717" stop-color="#B87EBA"/>
<stop offset="1" stop-color="#BD7CD0" stop-opacity="0"/>
</radialGradient>
<radialGradient id="paint23_radial_246_1461" cx="0" cy="0" r="1" gradientUnits="userSpaceOnUse" gradientTransform="translate(41.9968 7.47895) rotate(143.075) scale(14.8514 14.7997)">
<stop stop-color="#FF78AD"/>
<stop offset="1" stop-color="#FB426F"/>
</radialGradient>
<radialGradient id="paint24_radial_246_1461" cx="0" cy="0" r="1" gradientUnits="userSpaceOnUse" gradientTransform="translate(41.4652 12.8148) rotate(180) scale(20.4669 20.2063)">
<stop offset="0.542662" stop-color="#CC515D" stop-opacity="0"/>
<stop offset="1" stop-color="#CC515D"/>
</radialGradient>
<radialGradient id="paint25_radial_246_1461" cx="0" cy="0" r="1" gradientUnits="userSpaceOnUse" gradientTransform="translate(33.9785 5.90443) rotate(90) scale(20.6437 20.9099)">
<stop offset="0.807095" stop-color="#B8276B" stop-opacity="0"/>
<stop offset="1" stop-color="#B8276B"/>
</radialGradient>
</defs>
</svg>
