<svg width="35" height="37" viewBox="0 0 35 37" fill="none" xmlns="http://www.w3.org/2000/svg">
<path d="M33.6977 16.2822C34.3315 17.3553 34.69 18.5 34.69 19.8839C34.69 23.0647 32.0002 26.0684 28.4877 26.0684H25.8513C26.2069 26.9941 26.4909 28.1012 26.4909 29.4316C26.4909 34.6921 23.767 37 19.6056 37C15.1532 37 15.4072 30.1396 14.4195 29.152C12.7755 27.5081 10.8338 24.3501 9.45013 23.125H2.31267C1.03542 23.125 0 22.0897 0 20.8125V3.46875C0 2.1916 1.03542 1.15625 2.31267 1.15625H6.938C8.01433 1.15625 8.9188 1.89148 9.17681 2.88701C12.3935 2.81467 14.6015 0.000724792 22.0267 0.000724792C22.5485 0.000724792 23.1267 0 23.6326 0C29.2059 0 31.7259 2.84893 31.7948 6.88908C32.7574 8.22058 33.2619 10.0053 33.048 11.7302C33.7602 13.0636 34.0355 14.6456 33.6977 16.2822ZM29.235 12.3921C30.1427 10.8651 29.3261 8.82146 28.2275 8.23178C28.784 4.70666 26.955 3.46947 24.3885 3.46947H21.6552C16.4778 3.46947 13.1252 6.20256 9.25067 6.20256V19.6562H10.0399C12.0895 19.6562 14.9528 24.7792 16.8723 26.6993C18.9219 28.7487 18.239 32.1647 19.6056 33.5312C23.0219 33.5312 23.0219 31.1479 23.0219 29.4316C23.0219 26.601 20.9723 25.3327 20.9723 22.5996H28.4877C30.0134 22.5996 31.2145 21.2331 31.221 19.8665C31.2275 18.5007 30.2945 17.1342 29.6115 17.1342C30.5864 16.0824 30.7947 13.8652 29.235 12.3921ZM6.35983 5.78125C6.35983 4.82337 5.58328 4.04688 4.62533 4.04688C3.66738 4.04688 2.89083 4.82337 2.89083 5.78125C2.89083 6.73913 3.66738 7.51562 4.62533 7.51562C5.58328 7.51562 6.35983 6.73913 6.35983 5.78125Z" fill="white"/>
</svg>
