<svg width="52" height="48" viewBox="0 0 52 48" fill="none" xmlns="http://www.w3.org/2000/svg">
<path d="M2.012 23.9665C1.95241 25.0544 2.11525 26.143 2.49058 27.1659C2.86589 28.189 3.44578 29.1245 4.19487 29.9158C4.94398 30.7071 5.84653 31.3374 6.84737 31.7681C7.84825 32.1988 8.92642 32.4208 10.016 32.4208C11.1056 32.4208 12.1838 32.1988 13.1846 31.7681C14.1855 31.3374 15.088 30.7071 15.8371 29.9158C16.5862 29.1245 17.1662 28.189 17.5415 27.1659C17.9168 26.143 18.0796 25.0544 18.02 23.9665V10.4545C18.0796 9.36653 17.9168 8.27765 17.5415 7.25477C17.1662 6.23189 16.5862 5.29637 15.8371 4.50509C15.088 3.71381 14.1855 3.08357 13.1846 2.65277C12.1838 2.22221 11.1056 1.99997 10.016 1.99997C8.92642 1.99997 7.84825 2.22221 6.84737 2.65277C5.84653 3.08357 4.94398 3.71381 4.19487 4.50509C3.44578 5.29637 2.86589 6.23189 2.49058 7.25477C2.11525 8.27765 1.95241 9.36653 2.012 10.4545V23.9665Z" stroke="black" stroke-width="3.6" stroke-linecap="round" stroke-linejoin="round"/>
<path d="M18.0644 10.4545C18.058 9.39869 18.2597 8.35205 18.6579 7.37405C19.0562 6.39629 19.6431 5.50637 20.3852 4.75517C21.1273 4.00421 22.01 3.40661 22.9832 2.99693C23.9562 2.58701 25.0004 2.37269 26.0564 2.36645H35.9444C38.2499 2.36813 40.4929 3.11765 42.3364 4.50245C44.1798 5.88725 45.5245 7.83269 46.1685 10.0465L49.7685 22.2384C50.055 23.0489 50.1438 23.9161 50.0279 24.7678C49.9117 25.6196 49.594 26.4313 49.1013 27.1354C48.6083 27.8396 47.9543 28.4161 47.1937 28.8166C46.4332 29.2172 45.5879 29.4303 44.7284 29.4384H31.4804V42.1105C31.4836 42.5707 31.396 43.0268 31.2229 43.4532C31.0496 43.8795 30.7943 44.2675 30.471 44.5951C30.148 44.9228 29.7635 45.1836 29.3394 45.3626C28.9156 45.5416 28.4605 45.6353 28.0004 45.6384C27.2432 45.635 26.5079 45.3847 25.906 44.9256C25.3038 44.4665 24.868 43.8236 24.6644 43.0944L18.0644 21.1105" stroke="black" stroke-width="3.6" stroke-linecap="round" stroke-linejoin="round"/>
</svg>
