<svg width="30" height="30" viewBox="0 0 30 30" fill="none" xmlns="http://www.w3.org/2000/svg">
<rect y="4" width="30" height="22" rx="3" fill="white"/>
<path d="M27.1875 4H2.8125C1.25918 4 0 5.2312 0 6.75V23.25C0 24.7688 1.25918 26 2.8125 26H27.1875C28.7408 26 30 24.7688 30 23.25V6.75C30 5.2312 28.7408 4 27.1875 4ZM27.1875 6.75V9.08779C25.8737 10.1339 23.7792 11.7605 19.3015 15.1888C18.3148 15.9477 16.3601 17.771 15 17.7498C13.6402 17.7713 11.6848 15.9474 10.6985 15.1888C6.22148 11.761 4.12646 10.134 2.8125 9.08779V6.75H27.1875ZM2.8125 23.25V12.6166C4.15512 13.6622 6.05912 15.1295 8.96121 17.3515C10.2419 18.3372 12.4847 20.5132 15 20.4999C17.5029 20.5132 19.7173 18.3688 21.0383 17.3519C23.9403 15.13 25.8448 13.6623 27.1875 12.6166V23.25H2.8125Z" fill="#FF3D00"/>
</svg>
