<svg width="30" height="30" viewBox="0 0 30 30" fill="none" xmlns="http://www.w3.org/2000/svg">
<rect y="1" width="30" height="28.24" rx="2" fill="#55CD61"/>
<mask id="path-2-inside-1_349_5554" fill="white">
<path fill-rule="evenodd" clip-rule="evenodd" d="M15.882 26.3574C22.0867 26.3574 27.1173 21.3266 27.1173 15.1199C27.1173 8.91333 22.0867 3.88244 15.882 3.88244C9.6772 3.88244 4.64667 8.91333 4.64667 15.1199C4.64667 16.7283 4.98447 18.2577 5.59298 19.6411L3.45502 25.4654L9.55455 24.4072C11.3567 25.6379 13.5353 26.3574 15.882 26.3574ZM15.882 28.3574C23.1916 28.3574 29.1173 22.4308 29.1173 15.1199C29.1173 7.80907 23.1916 1.88245 15.882 1.88245C8.57231 1.88245 2.64667 7.80907 2.64667 15.1199C2.64667 16.8459 2.97692 18.4946 3.57766 20.0065L0.744141 27.7245L8.82782 26.3226C10.8698 27.6116 13.2888 28.3574 15.882 28.3574Z"/>
</mask>
<path d="M5.59298 19.6411L7.47048 20.3302L7.74824 19.5736L7.4237 18.8358L5.59298 19.6411ZM3.45502 25.4654L1.57752 24.7762L0.383853 28.028L3.79688 27.4359L3.45502 25.4654ZM9.55455 24.4072L10.6824 22.7556L10.0123 22.298L9.2127 22.4367L9.55455 24.4072ZM3.57766 20.0065L5.45513 20.6958L5.71855 19.9783L5.43631 19.268L3.57766 20.0065ZM0.744141 27.7245L-1.13333 27.0353L-2.32716 30.287L1.08589 29.6951L0.744141 27.7245ZM8.82782 26.3226L9.89537 24.6313L9.24447 24.2205L8.48607 24.352L8.82782 26.3226ZM25.1173 15.1199C25.1173 20.2223 20.9819 24.3574 15.882 24.3574V28.3574C23.1916 28.3574 29.1173 22.4308 29.1173 15.1199H25.1173ZM15.882 5.88244C20.9819 5.88244 25.1173 10.0176 25.1173 15.1199H29.1173C29.1173 7.80906 23.1916 1.88244 15.882 1.88244V5.88244ZM6.64667 15.1199C6.64667 10.0176 10.7821 5.88244 15.882 5.88244V1.88244C8.57233 1.88244 2.64667 7.80906 2.64667 15.1199H6.64667ZM7.4237 18.8358C6.9247 17.7014 6.64667 16.4458 6.64667 15.1199H2.64667C2.64667 17.0108 3.04425 18.814 3.76226 20.4463L7.4237 18.8358ZM5.33253 26.1545L7.47048 20.3302L3.71548 18.9519L1.57752 24.7762L5.33253 26.1545ZM9.2127 22.4367L3.11317 23.4948L3.79688 27.4359L9.8964 26.3778L9.2127 22.4367ZM15.882 24.3574C13.9504 24.3574 12.1628 23.7665 10.6824 22.7556L8.42668 26.0589C10.5505 27.5092 13.1203 28.3574 15.882 28.3574V24.3574ZM27.1173 15.1199C27.1173 21.3266 22.0867 26.3574 15.882 26.3574V30.3574C24.2965 30.3574 31.1173 23.5351 31.1173 15.1199H27.1173ZM15.882 3.88245C22.0867 3.88245 27.1173 8.91333 27.1173 15.1199H31.1173C31.1173 6.70482 24.2965 -0.117554 15.882 -0.117554V3.88245ZM4.64667 15.1199C4.64667 8.91333 9.6772 3.88245 15.882 3.88245V-0.117554C7.46743 -0.117554 0.646669 6.70482 0.646669 15.1199H4.64667ZM5.43631 19.268C4.92741 17.9873 4.64667 16.5888 4.64667 15.1199H0.646669C0.646669 17.1029 1.02643 19.002 1.71901 20.745L5.43631 19.268ZM2.62161 28.4138L5.45513 20.6958L1.70019 19.3172L-1.13333 27.0353L2.62161 28.4138ZM8.48607 24.352L0.402387 25.754L1.08589 29.6951L9.16958 28.2932L8.48607 24.352ZM15.882 26.3574C13.6777 26.3574 11.6273 25.7246 9.89537 24.6313L7.76027 28.0139C10.1124 29.4986 12.8999 30.3574 15.882 30.3574V26.3574Z" fill="white" mask="url(#path-2-inside-1_349_5554)"/>
<g clip-path="url(#clip0_349_5554)">
<path d="M12.1326 13.9307C13.4561 15.9164 14.6326 17.5395 16.6914 18.8706L17.3531 17.7234C17.5517 17.5248 17.8752 17.4513 18.6987 17.7234C19.5223 17.9955 20.412 18.1425 21.3237 18.1425C21.7281 18.1425 22.059 18.4735 22.059 18.878V21.4446C22.059 21.849 21.7281 22.18 21.3237 22.18C14.4193 22.18 8.82373 16.5835 8.82373 9.6779C8.82373 9.27342 9.15461 8.94248 9.55902 8.94248H12.1326C12.537 8.94248 12.8678 9.27342 12.8678 9.6779C12.8678 10.5972 13.0149 11.4797 13.287 12.3033C13.3678 12.5607 13.662 13.0629 13.4561 13.2689L12.1326 13.9307Z" fill="white"/>
</g>
<defs>
<clipPath id="clip0_349_5554">
<rect width="30" height="28.24" fill="white" transform="translate(0 1)"/>
</clipPath>
</defs>
</svg>
